<svg width="500" height="500" xmlns="http://www.w3.org/2000/svg">
  <g>
    <title>Step 2</title>
    <rect id="step_2" height="392.99998" width="26" y="38.00002" x="41" stroke="#000" fill="#098787"/>
    <rect id="step_1" height="80" width="457" y="420" x="22" stroke="#000" fill="#098787"/>
    <rect id="step_3" height="27" width="339.99999" y="38" x="41" stroke="#000" fill="#098787"/>
    <rect id="step_4" height="41" width="41" y="33" x="35" stroke="#000" fill="#2453b7"/>
    <path stroke-dasharray="5,2,2,2,2,2" stroke-width="5" id="svg_10"
          d="m268.99738,65c-1.26295,38.08875 13.47147,-5.09467 -1.26295,38.08875c-14.73442,43.18343 -14.73442,43.91124 -14.73442,43.91124"
          opacity="NaN" stroke="#000" fill="none"/>
    <rect id="step_14" height="95.33333" width="59.66666" y="213.66663" x="228.99997" stroke-width="3" stroke="#f48413" fill="#ffd4aa"/>
    <path d="m257.62857,145.69413c0,0 -0.1841,-0.38179 -0.62857,-1.30351c-0.44447,-0.92172 -0.62857,0 -0.62857,0c-0.62857,0 -0.62857,0 -1.25714,0c0,0 0,0 -0.62857,0c-0.62857,0 -0.43587,-0.59805 -1.25714,-1.30351c-0.58072,-0.49884 -0.67642,-0.49884 -1.25714,0c-0.82127,0.70546 -0.6622,0.70454 -1.88571,1.30351c-1.36793,0.66967 -1.88571,2.60702 -2.51429,3.91052c-0.62857,1.30351 -0.81268,1.6853 -1.25714,2.60702c-0.44447,0.92172 -0.38802,1.40274 -0.62857,2.60702c-0.34018,1.70312 -0.62857,1.30351 -1.25714,3.91052c0,0 0,1.30351 0,1.30351c-0.62857,0 -0.81268,0.38179 -1.25714,1.30351c-0.44447,0.92172 -0.62857,1.30351 -0.62857,1.30351c0,1.30351 -0.38802,1.40274 -0.62857,2.60702c-0.34018,1.70312 -1.01659,1.40274 -1.25714,2.60702c-0.34018,1.70312 -1.55526,1.49819 -1.88571,2.60702c-0.73893,2.47942 -1.88571,2.60702 -1.88571,2.60702c-0.62857,1.30351 -1.25714,2.60702 -1.25714,2.60702c-0.62857,1.30351 -0.62857,1.30351 -0.62857,2.60702c0,0 0,1.30351 0,1.30351c0,0 0,1.30351 0,1.30351c0,1.30351 0,1.30351 0,2.60702c0,0 0,1.30351 0,1.30351c0.62857,1.30351 0.38802,1.40274 0.62857,2.60702c0.34018,1.70312 0.62857,1.30351 0.62857,1.30351c0.62857,1.30351 0.81268,1.6853 1.25714,2.60702c0.44447,0.92172 0.28839,0.9039 0.62857,2.60702c0.24055,1.20428 0,1.30351 0.62857,1.30351c0,0 0.62857,0 0.62857,0c0.62857,0 0.62857,0 1.25714,0c0,0 0,0 0.62857,0c0,0 0.62857,0 1.25714,0c0,0 0.62857,0 0.62857,0c0.62857,0 0.62857,0 1.25714,0c0,0 0.1841,-0.38179 0.62857,-1.30351c0.44447,-0.92172 0.62857,0 1.88571,0c0,0 0.62857,0 0.62857,0c0,1.30351 0,3.91052 0,6.51754c0,1.30351 -0.24055,2.70625 0,3.91052c0.34018,1.70312 0.62857,1.30351 0.62857,2.60702c0,0 0,1.30351 0,1.30351c0,1.30351 0,1.30351 0,2.60702c0,0 0.62857,1.30351 0.62857,1.30351c0,1.30351 0.62857,1.30351 0.62857,1.30351c0.62857,0 0.62857,0 0.62857,0c0.62857,0 0.62857,1.30351 1.25714,1.30351c0,0 0.62857,1.30351 1.25714,1.30351c0,0 0.1841,0.38179 0.62857,1.30351c0.44447,0.92172 0.1841,1.6853 0.62857,2.60702c0.44447,0.92172 0.62857,0 1.25714,1.30351c0,0 0.62857,1.30351 0.62857,1.30351c0.62857,0 0.62857,0 1.25714,0c0.62857,0 1.88571,0 1.88571,0c0.62857,0 1.25714,0 1.88571,0c0,0 0.81268,-0.92172 1.25714,0c0.44446,0.92172 0.62857,1.30351 0.62857,1.30351c0.62857,0 0.62857,0 1.25714,0c0,0 0,0 0.62857,0c0,0 0.62857,1.30351 0.62857,1.30351c0.62857,0 1.25714,0 1.25714,0c0,0 0.81268,0.92172 1.25714,0c0.44446,-0.92172 0.18411,-0.38179 0.62857,-1.30351c0.44446,-0.92172 1.25714,-5.21403 2.51429,-9.12456c0,0 0.62857,-2.60702 1.25714,-3.91052c0.62857,-1.30351 0.81268,-1.6853 1.25714,-2.60702c0.44446,-0.92172 0.18411,-1.6853 0.62857,-2.60702c0.44446,-0.92172 0.18411,-0.38179 0.62857,-1.30351c0.44446,-0.92172 0.38802,-0.09923 0.62857,-1.30351c0.34018,-1.70312 0.81268,-1.6853 1.25714,-2.60702c0.44446,-0.92172 0.62857,-2.60702 0.62857,-5.21403c0,0 0.62857,-1.30351 0.62857,-2.60702c0,0 0.62857,-2.60702 0.62857,-2.60702c0,-1.30351 0,-2.60702 0.62857,-3.91052c0,0 0,0 0,-1.30351c0,-1.30351 0,-2.60702 0,-2.60702c0,-1.30351 0,-1.30351 0,-2.60702c0,0 0,-1.30351 0,-1.30351c0,-1.30351 0,-2.60702 0,-2.60702c0,0 0,-1.30351 0,-2.60702c0,0 0,-1.30351 0,-1.30351c0,-1.30351 0,-1.30351 0,-2.60702c0,0 -0.62857,-1.30351 -0.62857,-1.30351c0,-1.30351 -0.62857,-1.30351 -0.62857,-2.60702c0,0 -0.62857,-1.30351 -0.62857,-1.30351c-0.62857,-1.30351 -1.69303,-1.90156 -2.51429,-2.60702c-0.58073,-0.49884 -1.25714,0 -1.25714,0c-0.62857,0 -1.88571,-1.30351 -2.51429,-2.60702c0,0 -0.62857,0 -1.25714,0c0,0 -0.62857,0 -0.62857,0c-0.62857,0 -0.43588,-0.59805 -1.25714,-1.30351c-0.58073,-0.49884 -0.62857,0 -0.62857,0c-0.62857,0 -0.62857,-1.30351 -1.25714,-1.30351c-0.62857,0 -0.81268,-0.38179 -1.25714,-1.30351c-0.44446,-0.92172 -0.18411,-0.38179 -0.62857,-1.30351c-0.44446,-0.92172 0,-1.30351 -0.62857,-2.60702c0,0 -0.38802,-1.40274 -0.62857,-2.60702c-0.34018,-1.70312 -0.18411,-1.6853 -0.62857,-2.60702c-0.44446,-0.92172 -0.62857,-1.30351 -1.25714,-1.30351l0,0l0,0l-0.62857,0" id="svg_11" stroke-dasharray="5,2,2,2,2,2" stroke-width="5" stroke="#000" fill="none"/>
    <ellipse stroke-width="3" ry="22.16667" rx="22.16667" id="svg_12" cy="185.5" cx="258.83334" stroke="#f48413" fill="#ffd4aa"/>
    <path id="step_13" d="m245.66663,205.3333" opacity="NaN" stroke-width="3" stroke="#f48413" fill="#ffd4aa"/>
    <line id="step_15" y2="278.66663" x2="213.99997" y1="236.99997" x1="221.99997" stroke-width="3" stroke="#f48413" fill="none"/>
    <line id="step_16" y2="276.3333" x2="307.99996" y1="234.99997" x1="295.66663" stroke-width="3" stroke="#f48413" fill="none"/>
    <line id="step_17" y2="379.33328" x2="225.3333" y1="314.99995" x1="240.3333" stroke-width="3" stroke="#f48413" fill="none"/>
    <line id="step_18" y2="376.99995" x2="296.3333" y1="314.66662" x1="273.3333" stroke-width="3" stroke="#f48413" fill="none"/>
    <line id="step_19" y2="383.99995" x2="214.66664" y1="378.33328" x1="225.66664" stroke-width="3" stroke="#f48413" fill="none"/>
    <line id="step_20" y2="380.99995" x2="284.66663" y1="375.66661" x1="295.66663" stroke-width="3" stroke="#f48413" fill="none"/>
    <rect id="step_21" height="15.66666" width="15.99999" y="177.66642" x="250.99971" stroke-width="0" stroke="#f48413" fill="#dd0821"/>
  </g>
</svg>
